HIERARCHY
ROOT Hips
{
	OFFSET 0.00000 0.00000 0.00000
	CHANNELS 6 Xposition Yposition Zposition Zrotation Yrotation Xrotation 
	JOINT LHipJoint
	{
		OFFSET 0 0 0
		CHANNELS 3 Zrotation Yrotation Xrotation
		JOINT LeftHip
		{
			OFFSET 1.61024 -1.73873 0.75100
			CHANNELS 3 Zrotation Yrotation Xrotation
			JOINT LeftKnee
			{
				OFFSET 2.29819 -6.31424 0.00000
				CHANNELS 3 Zrotation Yrotation Xrotation
				JOINT LeftAnkle
				{
					OFFSET 2.76618 -7.60002 0.00000
					CHANNELS 3 Zrotation Yrotation Xrotation
					JOINT LeftToe
					{
						OFFSET 0.16838 -0.46263 2.02361
						CHANNELS 3 Zrotation Yrotation Xrotation
						End Site
						{
							OFFSET 0.00000 -0.00000 1.04662
						}
					}
				}
			}
		}
	}
	JOINT RHipJoint
	{
		OFFSET 0 0 0
		CHANNELS 3 Zrotation Yrotation Xrotation
		JOINT RightHip
		{
			OFFSET -1.46153 -1.73873 0.75100
			CHANNELS 3 Zrotation Yrotation Xrotation
			JOINT RightKnee
			{
				OFFSET -2.38373 -6.54924 0.00000
				CHANNELS 3 Zrotation Yrotation Xrotation
				JOINT RightAnkle
				{
					OFFSET -2.80314 -7.70157 0.00000
					CHANNELS 3 Zrotation Yrotation Xrotation
					JOINT RightToe
					{
						OFFSET -0.16142 -0.44349 2.02101
						CHANNELS 3 Zrotation Yrotation Xrotation
						End Site
						{
							OFFSET -0.00000 -0.00000 1.04381
						}
					}
				}
			}
		}
	}
	JOINT lowerback
	{
		OFFSET 0 0 0
		CHANNELS 3 Zrotation Yrotation Xrotation
		JOINT Chest
		{
			OFFSET -0.01629 1.66985 0.14750
			CHANNELS 3 Zrotation Yrotation Xrotation
			JOINT Chest2
			{
				OFFSET 0.02086 1.62378 0.20980
				CHANNELS 3 Zrotation Yrotation Xrotation
				JOINT lowerneck
				{
					OFFSET 0 0 0
					CHANNELS 3 Zrotation Yrotation Xrotation
					JOINT Neck
					{
						OFFSET -0.05690 1.78719 0.08702
						CHANNELS 3 Zrotation Yrotation Xrotation
						JOINT Head
						{
							OFFSET 0.16035 1.73871 -0.38470
							CHANNELS 3 Zrotation Yrotation Xrotation
							End Site
							{
								OFFSET 0.05645 1.80914 -0.14081
							}
						}
					}
				}
				JOINT LeftCollar
				{
					OFFSET 0 0 0
					CHANNELS 3 Zrotation Yrotation Xrotation
					JOINT LeftShoulder
					{
						OFFSET 2.83089 1.66494 -0.46008
CHANNELS 3 Zrotation Xrotation Yrotation
						JOINT LeftElbow
						{
OFFSET 0 -5.548930 -0.000000
CHANNELS 3 Zrotation Xrotation Yrotation
							JOINT LeftWrist
							{
OFFSET 0 -3.028980 -0.000000
CHANNELS 3 Zrotation Xrotation Yrotation
								JOINT lhand
								{
									OFFSET 0 0 0
CHANNELS 3 Zrotation Xrotation Yrotation
									JOINT LFingers
									{
OFFSET 0 -0.640950 -0.000000
CHANNELS 3 Zrotation Xrotation Yrotation
										End Site
										{
OFFSET 0 -0.516750 -0.000000
										}
									}
								}
								JOINT LThumb
								{
OFFSET 0 0.000000 0.000000
CHANNELS 3 Zrotation Xrotation Yrotation
									End Site
									{
OFFSET 0 -0.524640 0.524640
									}
								}
							}
						}
					}
				}
				JOINT RightCollar
				{
					OFFSET 0 0 0
					CHANNELS 3 Zrotation Yrotation Xrotation
					JOINT RightShoulder
					{
						OFFSET -2.84442 1.45761 -0.18088
CHANNELS 3 Zrotation Xrotation Yrotation
						JOINT RightElbow
						{
OFFSET 0 -5.351900 -0.000000
CHANNELS 3 Zrotation Xrotation Yrotation
							JOINT RightWrist
							{
OFFSET 0 -3.025310 -0.000000
CHANNELS 3 Zrotation Xrotation Yrotation
								JOINT rhand
								{
									OFFSET 0 0 0
CHANNELS 3 Zrotation Xrotation Yrotation
									JOINT RFingers
									{
OFFSET 0 -0.783890 -0.000000
CHANNELS 3 Zrotation Xrotation Yrotation
										End Site
										{
OFFSET 0 -0.631990 -0.000000
										}
									}
								}
								JOINT RThumb
								{
OFFSET 0 0.000000 0.000000
CHANNELS 3 Zrotation Xrotation Yrotation
									End Site
									{
OFFSET 0 -0.641640 0.641640
									}
								}
							}
						}
					}
				}
			}
		}
	}
}
MOTION
Frames: 9
Frame Time: 0.008333333333333333
1.033122 19.600083 0.443786 -529.019902 77.206968 -504.909028 0.000000 0.000000 0.000000 -2.704541 -32.984511 -19.306056 0.279892 3.402699 9.401968 -3.930166 41.724624 12.768156 0.603326 -4.964877 -13.809888 0.000000 0.000000 0.000000 15.163261 14.642435 -20.399906 -0.327230 -3.676619 10.168500 4.392823 -37.690504 2.676454 -1.293204 -7.198021 20.306426 -0.966937 1.121419 6.247184 1.063854 1.942362 -10.504541 1.308721 1.275538 -15.206342 -5.695496 3.399469 -3.263391 12.207928 4.737269 1.111417 4.636560 2.547818 0.430029 0.000000 0.000000 0.000000 14.217422 41.606526 -44.169501 45.925276 -51.213647 22.957757 -24.349939 -44.233621 -40.103519 0.000000 0.000000 0.000000 -7.125000 0.000000 0.000000 -66.022728 58.126418 28.933815 0.000000 0.000000 0.000000 -20.182645 36.036817 37.311521 -36.634481 -45.944317 -15.976932 11.656619 -0.019753 -8.280834 0.000000 0.000000 0.000000 7.125000 0.000000 0.000000 26.950962 21.604141 17.084674
0.974750 19.589096 0.450665 -528.527668 77.466422 -504.149369 0.000000 0.000000 0.000000 -2.471418 -32.807933 -19.486609 0.255028 3.249335 8.973692 -3.861965 41.345987 12.573344 0.547683 -4.735640 -13.157190 0.000000 0.000000 0.000000 14.828257 15.116013 -20.557632 -0.309935 -3.578966 9.895041 4.933582 -37.638511 -2.519456 -2.280741 -9.424697 27.135598 -1.060701 1.206295 7.232280 0.981295 1.974723 -10.084409 1.249524 1.268398 -15.330028 -5.483342 3.408326 -3.652033 12.036086 4.606839 2.730739 4.581827 2.527651 0.987416 0.000000 0.000000 0.000000 14.257220 41.673480 -44.205520 46.581058 -51.519956 23.470038 -23.819443 -43.578326 -39.562310 0.000000 0.000000 0.000000 -7.125000 0.000000 0.000000 -64.901304 57.959347 27.860580 0.000000 0.000000 0.000000 -19.371387 36.641192 37.014410 -35.433345 -45.118792 -15.119637 10.803394 -0.207725 -8.791898 0.000000 0.000000 0.000000 7.125000 0.000000 0.000000 26.308980 21.173680 16.866471
0.929771 19.571867 0.453694 -527.750518 77.474975 -502.843987 0.000000 0.000000 0.000000 -2.050684 -32.754294 -19.611842 0.217317 3.000503 8.280267 -6.014199 42.755657 2.483463 0.019327 0.601624 1.653968 0.000000 0.000000 0.000000 14.488641 16.131945 -20.893561 -0.305553 -3.553789 9.824519 5.154667 -36.663921 -11.022818 -4.002044 -12.157353 36.299128 -0.796761 1.224317 7.598212 0.846279 1.983503 -9.758187 0.948171 1.215339 -15.149881 -5.093505 3.425452 -3.615338 11.739038 4.484023 4.331334 4.452014 2.500283 1.476404 0.000000 0.000000 0.000000 14.658733 41.649814 -44.411201 47.088937 -51.751748 23.868282 -23.676663 -43.400531 -39.414067 0.000000 0.000000 0.000000 -7.125000 0.000000 0.000000 -64.597776 57.911483 27.570398 0.000000 0.000000 0.000000 -18.375040 37.173466 36.807189 -34.054598 -44.124638 -14.151229 11.222956 -0.444074 -8.160452 0.000000 0.000000 0.000000 7.125000 0.000000 0.000000 26.700028 21.732014 16.793254
0.888234 19.558681 0.448873 -527.403883 77.521191 -501.918927 0.000000 0.000000 0.000000 -1.720603 -32.764727 -19.865643 0.187482 2.788308 7.689874 -6.961248 42.603710 -5.577529 0.512445 4.581444 12.719788 0.000000 0.000000 0.000000 14.242327 16.523597 -21.641688 -0.316293 -3.615454 9.997188 4.899982 -35.696613 -13.815800 -4.537625 -12.843211 38.784576 -0.600638 1.179356 7.661573 0.781526 1.897480 -9.268689 0.792624 1.129007 -14.582904 -4.901458 3.524522 -3.516148 11.283619 4.541543 5.342427 4.352821 2.536985 1.790295 0.000000 0.000000 0.000000 14.528143 41.402948 -43.936674 47.432199 -51.905810 24.138131 -23.245453 -43.713147 -39.001138 0.000000 0.000000 0.000000 -7.125000 0.000000 0.000000 -63.728802 57.782834 26.763588 0.000000 0.000000 0.000000 -17.485761 37.540901 36.471345 -33.173181 -43.462674 -13.541088 12.062339 0.076474 -8.092528 0.000000 0.000000 0.000000 7.125000 0.000000 0.000000 27.245839 21.757070 17.213657
0.839889 19.549889 0.455581 -527.531992 77.687319 -501.847382 0.000000 0.000000 0.000000 -1.539961 -32.751121 -20.061580 0.176197 2.703954 7.455559 -7.049724 42.117034 -8.833174 0.796036 5.686351 15.879271 0.000000 0.000000 0.000000 13.994781 16.916317 -21.956562 -0.319144 -3.631292 10.041607 3.934998 -33.157837 -20.834556 -5.952690 -14.381783 44.790466 -0.842322 1.199229 8.232070 0.766925 1.832442 -8.691476 0.923780 1.098247 -14.259314 -4.766764 3.645921 -3.363044 10.961823 4.627469 6.492429 4.198409 2.595722 2.084448 0.000000 0.000000 0.000000 14.426219 41.143343 -43.878332 48.195247 -52.241159 24.740028 -22.777118 -46.561530 -41.397505 0.000000 0.000000 0.000000 -7.125000 0.000000 0.000000 -66.537497 59.203559 31.053606 0.000000 0.000000 0.000000 -16.761976 38.096568 36.543830 -32.408657 -42.870445 -13.017998 12.877434 0.215832 -8.078382 0.000000 0.000000 0.000000 7.125000 0.000000 0.000000 27.760867 21.730636 17.653161
0.792510 19.545491 0.453613 -525.990983 77.755605 -500.354202 0.000000 0.000000 0.000000 -1.163309 -32.664789 -20.202093 0.185435 2.773403 7.648640 -6.876353 41.371867 -10.767315 1.065834 6.560828 18.421491 0.000000 0.000000 0.000000 14.264927 16.834812 -21.790970 -0.289378 -3.459466 9.560560 4.771918 -35.289960 -14.805126 -4.493504 -12.788763 38.584210 -0.484172 1.215826 9.038730 0.681786 1.848649 -8.130748 0.618310 1.040557 -14.085483 -4.333705 3.829054 -3.674655 10.557258 4.772746 8.238574 4.052712 2.714107 2.662857 0.000000 0.000000 0.000000 14.402647 40.908569 -43.193921 48.464264 -52.357018 24.952868 -24.303375 -48.611450 -41.262135 0.000000 0.000000 0.000000 -7.125000 0.000000 0.000000 -67.539328 58.749950 31.079772 0.000000 0.000000 0.000000 -15.918950 38.715291 36.954464 -31.749008 -42.346158 -12.571461 13.516009 0.321541 -8.372790 0.000000 0.000000 0.000000 7.125000 0.000000 0.000000 28.096224 21.430997 18.155752
0.751611 19.533466 0.456180 -525.226563 78.011415 -499.450531 0.000000 0.000000 0.000000 -0.835471 -32.385111 -20.279145 0.166365 2.627522 7.243479 -6.564617 40.239225 -14.170755 1.626163 8.037532 22.829317 0.000000 0.000000 0.000000 14.038053 17.153681 -21.978215 -0.281152 -3.410509 9.423727 4.656907 -34.979540 -15.007774 -4.507737 -12.785656 38.605792 -0.636474 1.198953 9.557760 0.601138 1.752626 -7.644844 0.632307 0.987867 -13.836536 -4.034603 3.901025 -3.766488 10.211299 4.803351 9.651816 3.935190 2.761202 3.113581 0.000000 0.000000 0.000000 14.523704 40.813980 -43.193252 49.398888 -52.750074 25.694955 -23.729062 -48.903737 -41.652083 0.000000 0.000000 0.000000 -7.125000 0.000000 0.000000 -67.630611 59.095286 31.711002 0.000000 0.000000 0.000000 -15.405272 39.248625 38.015564 -31.063440 -41.787308 -12.112194 13.617286 0.043995 -8.630129 0.000000 0.000000 0.000000 7.125000 0.000000 0.000000 28.104237 21.192433 18.341790
0.703244 19.526925 0.453897 -524.329007 78.121675 -498.433356 0.000000 0.000000 0.000000 -0.479364 -32.296783 -20.491106 0.158919 2.568362 7.079147 -6.489355 40.044476 -14.278718 1.617225 8.018521 22.770413 0.000000 0.000000 0.000000 13.977394 17.236364 -22.296122 -0.276354 -3.381324 9.342207 4.823370 -35.475130 -13.351434 -4.056839 -12.235522 36.570601 -0.419967 1.179444 10.220434 0.404377 1.700577 -7.184561 0.298884 0.914577 -13.693065 -3.932749 3.898423 -3.882545 10.178833 4.736958 11.089134 3.947015 2.771578 3.570902 0.000000 0.000000 0.000000 14.847406 40.627699 -43.319079 49.633648 -52.846679 25.881950 -23.591187 -47.534428 -40.303228 0.000000 0.000000 0.000000 -7.125000 0.000000 0.000000 -65.693891 58.418647 29.171019 0.000000 0.000000 0.000000 -14.507759 39.582283 38.417130 -30.389251 -41.224745 -11.665338 14.742009 0.571148 -9.212096 0.000000 0.000000 0.000000 7.125000 0.000000 0.000000 28.668969 20.602239 19.281170
0.654810 19.521302 0.456029 -523.462018 78.400323 -497.501311 0.000000 0.000000 0.000000 -0.393068 -32.181421 -20.721743 0.167397 2.635429 7.265367 -5.823834 38.314737 -18.937052 2.585058 9.989980 28.945119 0.000000 0.000000 0.000000 13.779663 17.547133 -22.437304 -0.264789 -3.310235 9.143620 4.855961 -35.606399 -12.825243 -3.969500 -12.113607 36.143628 -0.466120 1.124048 10.961893 0.298620 1.568881 -6.634067 0.231544 0.834901 -13.505383 -3.911730 4.023621 -4.526448 9.880965 4.866208 12.949146 3.926534 2.876742 4.239808 0.000000 0.000000 0.000000 14.691326 40.297262 -43.040620 49.995715 -52.993773 26.170771 -23.461206 -47.528724 -40.371562 0.000000 0.000000 0.000000 -7.125000 0.000000 0.000000 -65.682985 58.487257 29.274097 0.000000 0.000000 0.000000 -14.179128 39.692417 39.356650 -29.927841 -40.831381 -11.362469 15.597822 0.936470 -9.243715 0.000000 0.000000 0.000000 7.125000 0.000000 0.000000 29.177551 20.520171 19.802902
